<svg xmlns="http://www.w3.org/2000/svg" viewBox="0 0 800 480" style="background-color: #0a0e1a; font-family: Inter, system-ui, sans-serif;">
<rect width="800" height="480" fill="#0a0e1a" />
<text x="80" y="32" fill="#f8fafc" font-size="16" font-weight="bold">Solution Quality Comparison (Mean Objective Fitness)</text>
<text x="80" y="48" fill="#94a3b8" font-size="12">Objective value minimization across benchmark instances (Lower is Better)</text>
<line x1="80" y1="420.0" x2="650" y2="420.0" stroke="#1e293b" stroke-dasharray="3,3" />
<text x="70" y="424.0" fill="#94a3b8" font-size="11" text-anchor="end">0.0</text>
<line x1="80" y1="330.0" x2="650" y2="330.0" stroke="#1e293b" stroke-dasharray="3,3" />
<text x="70" y="334.0" fill="#94a3b8" font-size="11" text-anchor="end">25.2</text>
<line x1="80" y1="240.0" x2="650" y2="240.0" stroke="#1e293b" stroke-dasharray="3,3" />
<text x="70" y="244.0" fill="#94a3b8" font-size="11" text-anchor="end">50.4</text>
<line x1="80" y1="150.0" x2="650" y2="150.0" stroke="#1e293b" stroke-dasharray="3,3" />
<text x="70" y="154.0" fill="#94a3b8" font-size="11" text-anchor="end">75.5</text>
<line x1="80" y1="60.0" x2="650" y2="60.0" stroke="#1e293b" stroke-dasharray="3,3" />
<text x="70" y="64.0" fill="#94a3b8" font-size="11" text-anchor="end">100.7</text>
<text x="169.2" y="440" fill="#f8fafc" font-size="11" font-weight="600" text-anchor="middle">small_seed_42</text>
<rect x="114.2" y="133.4" width="20.0" height="286.6" fill="#818cf8" rx="3" />
<rect x="136.2" y="138.9" width="20.0" height="281.1" fill="#f43f5e" rx="3" />
<rect x="158.2" y="133.4" width="20.0" height="286.6" fill="#34d399" rx="3" />
<rect x="180.2" y="138.9" width="20.0" height="281.1" fill="#38bdf8" rx="3" />
<rect x="202.2" y="107.0" width="20.0" height="313.0" fill="#fbbf24" rx="3" />
<text x="454.2" y="440" fill="#f8fafc" font-size="11" font-weight="600" text-anchor="middle">small_seed_43</text>
<rect x="399.2" y="171.6" width="20.0" height="248.4" fill="#818cf8" rx="3" />
<rect x="421.2" y="171.6" width="20.0" height="248.4" fill="#f43f5e" rx="3" />
<rect x="443.2" y="171.6" width="20.0" height="248.4" fill="#34d399" rx="3" />
<rect x="465.2" y="171.6" width="20.0" height="248.4" fill="#38bdf8" rx="3" />
<rect x="487.2" y="171.6" width="20.0" height="248.4" fill="#fbbf24" rx="3" />
<rect x="665" y="70" width="12" height="12" fill="#818cf8" rx="2" />
<text x="682" y="80" fill="#f8fafc" font-size="11">Classical_PSO</text>
<rect x="665" y="92" width="12" height="12" fill="#f43f5e" rx="2" />
<text x="682" y="102" fill="#f8fafc" font-size="11">Exact_Brute_Force</text>
<rect x="665" y="114" width="12" height="12" fill="#34d399" rx="2" />
<text x="682" y="124" fill="#f8fafc" font-size="11">Genetic_Algorithm</text>
<rect x="665" y="136" width="12" height="12" fill="#38bdf8" rx="2" />
<text x="682" y="146" fill="#f8fafc" font-size="11">QPSO</text>
<rect x="665" y="158" width="12" height="12" fill="#fbbf24" rx="2" />
<text x="682" y="168" fill="#f8fafc" font-size="11">Simulated_Annealing</text>
</svg>